<svg width="512" height="512" xmlns="http://www.w3.org/2000/svg">

	<g>
		<title>background</title>
		<rect fill="none" id="canvas_background" height="602" width="802" y="-1" x="-1"/>
	</g>
	<g>
		<title>Layer 1</title>
		<g id="comp_x5F_173-instagram">
			<g id="svg_1">
				<path id="svg_2" fill="#C13584" d="m257.55686,125.56613c-71.36917,0 -128.93535,57.56728 -128.93535,128.93426c0,71.36807 57.56618,128.93207 128.93535,128.93207c71.36807,0 128.93316,-57.56509 128.93316,-128.93207c0,-71.36698 -57.56618,-128.93426 -128.93316,-128.93426zm0,212.75924c-46.11965,0 -83.82498,-37.5938 -83.82498,-83.82498c0,-46.23118 37.59161,-83.82279 83.82498,-83.82279c46.229,0 83.82279,37.59161 83.82279,83.82279c0,46.23118 -37.70314,83.82498 -83.82279,83.82498l0,0zm164.27986,-218.03199c0,16.72038 -13.46619,30.07285 -30.07285,30.07285c-16.72148,0 -30.07285,-13.4651 -30.07285,-30.07285c0,-16.60775 13.464,-30.07394 30.07285,-30.07394c16.60666,0 30.07285,13.4651 30.07285,30.07394zm85.39412,30.52008c-1.90593,-40.28266 -11.10756,-75.96834 -40.62055,-105.3676c-29.39927,-29.40036 -65.08385,-38.60198 -105.3676,-40.62055c-41.52048,-2.35645 -165.96491,-2.35645 -207.4843,0c-40.17331,1.90593 -75.8568,11.10865 -105.3687,40.50901c-29.51299,29.40036 -38.60198,65.08385 -40.62164,105.3676c-2.35645,41.51829 -2.35645,165.96491 0,207.4843c1.90812,40.28594 11.10865,75.96724 40.62164,105.3687c29.5119,29.40036 65.08494,38.60089 105.3687,40.62055c41.51829,2.35535 165.96382,2.35535 207.4843,0c40.28485,-1.90703 75.96943,-11.11084 105.3676,-40.62055c29.40036,-29.40255 38.60198,-65.08385 40.62055,-105.3687c2.35754,-41.51829 2.35754,-165.85338 0,-207.37276zm-53.63841,251.92218c-8.7522,21.99204 -25.69675,38.93878 -47.80251,47.80251c-33.10288,13.13159 -111.65292,10.09937 -148.23415,10.09937c-36.58342,0 -115.245,2.91849 -148.23525,-10.09937c-21.99423,-8.7533 -38.93987,-25.69456 -47.80361,-47.80251c-13.12721,-33.10288 -10.09609,-111.65292 -10.09609,-148.23525s-2.91849,-115.24281 10.09718,-148.23415c8.75439,-21.99423 25.69675,-38.93878 47.80361,-47.80251c33.10288,-13.1294 111.65183,-10.09937 148.23525,-10.09937c36.58014,0 115.24281,-2.9174 148.23415,10.09937c21.99314,8.75002 38.93768,25.69675 47.80251,47.80251c13.1294,33.10179 10.10046,111.65183 10.10046,148.23415s3.02784,115.2439 -10.10156,148.23525z"/>
			</g>
		</g>
		<g id="Layer_1"/>
	</g>
</svg>