<?xml version="1.0" encoding="UTF-8" standalone="no"?>
<!-- Created with Inkscape (http://www.inkscape.org/) -->

<svg
   xmlns:dc="http://purl.org/dc/elements/1.1/"
   xmlns:cc="http://creativecommons.org/ns#"
   xmlns:rdf="http://www.w3.org/1999/02/22-rdf-syntax-ns#"
   xmlns:svg="http://www.w3.org/2000/svg"
   xmlns="http://www.w3.org/2000/svg"
   xmlns:sodipodi="http://sodipodi.sourceforge.net/DTD/sodipodi-0.dtd"
   xmlns:inkscape="http://www.inkscape.org/namespaces/inkscape"
   version="1.1"
   id="svg5749"
   width="2525.3333"
   height="338.66666"
   viewBox="0 0 2525.3333 338.66666"
   sodipodi:docname="logo.svg"
   inkscape:version="0.92.2 (5c3e80d, 2017-08-06)">
  <metadata
     id="metadata5755">
    <rdf:RDF>
      <cc:Work
         rdf:about="">
        <dc:format>image/svg+xml</dc:format>
        <dc:type
           rdf:resource="http://purl.org/dc/dcmitype/StillImage" />
        <dc:title></dc:title>
      </cc:Work>
    </rdf:RDF>
  </metadata>
  <defs
     id="defs5753" />
  <sodipodi:namedview
     pagecolor="#ffffff"
     bordercolor="#666666"
     borderopacity="1"
     objecttolerance="10"
     gridtolerance="10"
     guidetolerance="10"
     inkscape:pageopacity="0"
     inkscape:pageshadow="2"
     inkscape:window-width="1366"
     inkscape:window-height="705"
     id="namedview5751"
     showgrid="false"
     inkscape:pagecheckerboard="true"
     inkscape:zoom="0.17542239"
     inkscape:cx="2263.0358"
     inkscape:cy="-719.46459"
     inkscape:window-x="-8"
     inkscape:window-y="-8"
     inkscape:window-maximized="1"
     inkscape:current-layer="svg5749" />
  <g
     id="g5775"
     style="fill:#ffffff;fill-opacity:1"
     transform="matrix(0.75450971,0,0,0.75450971,757.25709,-279.4106)">
    <path
       inkscape:connector-curvature="0"
       id="path5108"
       d="m 1439.3829,371.19035 a 224,224 0 0 0 -223.4844,209.44531 l 33.3008,-9.99023 a 192,193.43523 0 0 1 190.1836,-168.41016 192,193.43523 0 0 1 185.832,145.41211 48,48 0 0 1 6.168,-0.45703 48,48 0 0 1 28.4258,9.38867 224,224 0 0 0 -220.4258,-185.38867 z m -223.2676,238.61914 a 224,224 0 0 0 223.2676,209.38086 224,224 0 0 0 220.6563,-185.55664 48,48 0 0 1 -28.6563,9.55664 48,48 0 0 1 -6.0234,-0.42578 192,193.43523 0 0 1 -185.9766,146.3418 192,193.43523 0 0 1 -190.2715,-169.39844 z"
       style="fill:#ffffff;fill-opacity:1;stroke:none" />
    <path
       inkscape:connector-curvature="0"
       id="rect5145"
       d="m 1407.3829,531.19035 c -17.728,0 -32,14.272 -32,32 h 96 v 64 h -96 c 0,17.728 14.272,32 32,32 h 64 c 17.728,0 32,-14.272 32,-32 v -64 c 0,-17.728 -14.272,-32 -32,-32 z"
       style="fill:#ffffff;fill-opacity:1;stroke:none;stroke-opacity:1" />
    <path
       sodipodi:nodetypes="cccccc"
       inkscape:connector-curvature="0"
       id="path5150"
       d="m 1215.3829,595.19035 80,-16 h 160 v 32 h -160 z"
       style="fill:#ffffff;fill-opacity:1;stroke:none;stroke-width:1px;stroke-linecap:butt;stroke-linejoin:miter;stroke-opacity:1" />
    <path
       inkscape:connector-curvature="0"
       id="path5152"
       d="m 1535.3829,547.19035 v 32 h -16 v 32 h 16 v 32 l 16,-16 v -16 h 52.3223 a 32,32 0 0 0 27.6777,16 32,32 0 0 0 32,-32 32,32 0 0 0 -32,-32 32,32 0 0 0 -27.668,16 h -52.332 v -16 z m 96,32 a 16,16 0 0 1 16,16 16,16 0 0 1 -16,16 16,16 0 0 1 -16,-16 16,16 0 0 1 16,-16 z"
       style="fill:#ffffff;fill-opacity:1;stroke:none;stroke-width:1px;stroke-linecap:butt;stroke-linejoin:miter;stroke-opacity:1" />
  </g>
  <flowRoot
     xml:space="preserve"
     id="flowRoot5777"
     style="fill:#ffffff;fill-opacity:1;stroke:none;font-family:sans-serif;font-style:normal;font-weight:normal;font-size:40px;line-height:1.25;letter-spacing:0px;word-spacing:0px;"><flowRegion
       id="flowRegion5779"
       style="fill:#ffffff;fill-opacity:1;"><rect
         id="rect5781"
         width="2268.8096"
         height="410.4379"
         x="256.52368"
         y="-71.771255"
         style="fill:#ffffff;fill-opacity:1;" /></flowRegion><flowPara
       id="flowPara5783"></flowPara></flowRoot>  <path
     style="font-style:normal;font-weight:normal;font-size:442.66665649px;line-height:1.25;font-family:sans-serif;letter-spacing:0px;word-spacing:0px;fill:#ffffff;fill-opacity:1;stroke:none"
     d="M 160.88086 16.185547 C 130.80273 16.185547 103.84961 22.826172 80.021484 36.107422 C 56.193359 49.258464 37.443359 67.552734 23.771484 90.990234 C 10.099609 114.42773 3.2636719 139.75326 3.2636719 166.9668 C 3.2636719 203.55534 15.177734 235.7819 39.005859 263.64648 C 69.995443 299.8444 112.05273 317.94336 165.17773 317.94336 C 208.92773 317.94336 243.82357 304.92253 269.86523 278.88086 C 296.03711 252.70898 309.25326 217.42253 309.51367 173.02148 L 185.68555 173.02148 L 185.68555 200.75586 L 277.28711 200.75586 C 273.51107 227.31836 261.40169 248.93294 240.95898 265.59961 C 220.51628 282.26628 195.51628 290.59961 165.95898 290.59961 C 141.61003 290.59961 119.21419 285.06576 98.771484 273.99805 C 78.328776 262.80013 62.313151 247.50065 50.724609 228.09961 C 39.136068 208.56836 33.341797 187.99544 33.341797 166.38086 C 33.341797 145.28711 38.940755 125.30013 50.138672 106.41992 C 61.336589 87.409505 77.091797 72.370443 97.404297 61.302734 C 117.84701 50.235026 139.33138 44.701172 161.85742 44.701172 C 179.95638 44.701172 198.51107 48.802734 217.52148 57.005859 C 236.66211 65.078776 254.24023 76.992839 270.25586 92.748047 L 292.52148 71.654297 C 272.07878 52.253255 251.11523 38.190755 229.63086 29.466797 C 208.14648 20.61263 185.22982 16.185547 160.88086 16.185547 z M 1380.1387 16.185547 C 1367.3783 16.185547 1355.5293 19.180339 1344.5918 25.169922 C 1333.7845 31.029297 1325.3861 39.102214 1319.3965 49.388672 C 1313.4069 59.67513 1310.4121 71.068359 1310.4121 83.568359 C 1310.4121 99.323568 1315.4902 113.97201 1325.6465 127.51367 C 1331.5059 135.58659 1346.4147 148.67253 1370.373 166.77148 C 1394.2012 184.74023 1410.6074 200.10482 1419.5918 212.86523 C 1426.1022 222.11003 1429.3574 231.55013 1429.3574 241.18555 C 1429.3574 249.64909 1427.1439 257.6569 1422.7168 265.20898 C 1418.2897 272.76107 1411.8444 278.81576 1403.3809 283.37305 C 1394.9173 287.80013 1385.8678 290.01367 1376.2324 290.01367 C 1353.7064 290.01367 1333.8496 274.19336 1316.6621 242.55273 L 1292.248 257.20117 C 1304.2272 279.07617 1317.3132 294.70117 1331.5059 304.07617 C 1345.6986 313.32096 1361.5189 317.94336 1378.9668 317.94336 C 1401.623 317.94336 1420.8288 310.26107 1436.584 294.89648 C 1452.4694 279.5319 1460.4121 261.43294 1460.4121 240.59961 C 1460.4121 226.14648 1455.7897 211.75846 1446.5449 197.43555 C 1437.3001 183.11263 1420.2428 166.77148 1395.373 148.41211 C 1374.4095 132.91732 1362.0397 123.34701 1358.2637 119.70117 C 1351.3626 112.80013 1346.61 106.41992 1344.0059 100.56055 C 1341.4017 94.701172 1340.0996 88.646484 1340.0996 82.396484 C 1340.0996 72.110026 1343.7454 63.451172 1351.0371 56.419922 C 1358.459 49.388672 1367.9642 45.873047 1379.5527 45.873047 C 1388.5371 45.873047 1396.8053 48.151693 1404.3574 52.708984 C 1412.0397 57.266276 1421.2845 66.70638 1432.0918 81.029297 L 1455.5293 63.255859 C 1442.3783 45.287109 1429.8783 32.982422 1418.0293 26.341797 C 1406.3105 19.570964 1393.6803 16.185547 1380.1387 16.185547 z M 372.1543 23.412109 L 372.1543 310.7168 L 400.86523 310.7168 L 400.86523 177.12305 L 417.27148 177.12305 L 520.39648 310.7168 L 555.94336 310.7168 L 452.62305 177.12305 C 476.71159 176.99284 495.5918 173.93294 509.26367 167.94336 C 522.93555 161.82357 533.41732 152.83919 540.70898 140.99023 C 548.13086 129.14128 551.8418 115.4043 551.8418 99.779297 C 551.8418 81.029297 546.50326 65.274089 535.82617 52.513672 C 525.14909 39.623047 511.2819 31.224609 494.22461 27.318359 C 482.89648 24.714193 461.2819 23.412109 429.38086 23.412109 L 372.1543 23.412109 z M 615.45898 23.412109 L 615.45898 310.7168 L 644.16992 310.7168 L 644.16992 23.412109 L 615.45898 23.412109 z M 716.38086 23.412109 L 716.38086 310.7168 L 746.06836 310.7168 L 746.06836 93.529297 L 935.52148 310.7168 L 941.9668 310.7168 L 941.9668 23.412109 L 913.64648 23.412109 L 913.64648 243.33398 L 722.63086 23.412109 L 716.38086 23.412109 z M 1018.2793 23.412109 L 1018.2793 310.7168 L 1109.6855 310.7168 C 1145.4928 310.7168 1173.2923 305.50846 1193.084 295.0918 C 1213.0059 284.67513 1229.1517 268.5293 1241.5215 246.6543 C 1254.0215 224.7793 1260.2715 199.45378 1260.2715 170.67773 C 1260.2715 137.3444 1252.3939 108.63346 1236.6387 84.544922 C 1221.0137 60.45638 1199.2689 43.529297 1171.4043 33.763672 C 1152.0033 26.86263 1120.8184 23.412109 1077.8496 23.412109 L 1018.2793 23.412109 z M 1498.6387 23.412109 L 1498.6387 51.341797 L 1562.8965 51.341797 L 1562.8965 310.7168 L 1592.1934 310.7168 L 1592.1934 51.341797 L 1656.2559 51.341797 L 1656.2559 23.412109 L 1498.6387 23.412109 z M 2057.3184 23.412109 L 2057.3184 310.7168 L 2087.0059 310.7168 L 2087.0059 93.529297 L 2276.459 310.7168 L 2282.9043 310.7168 L 2282.9043 23.412109 L 2254.584 23.412109 L 2254.584 243.33398 L 2063.5684 23.412109 L 2057.3184 23.412109 z M 2359.4121 23.412109 L 2359.4121 310.7168 L 2522.8887 310.7168 L 2522.8887 282.39648 L 2388.123 282.39648 L 2388.123 169.70117 L 2522.8887 169.70117 L 2522.8887 141.57617 L 2388.123 141.57617 L 2388.123 51.732422 L 2524.0605 51.732422 L 2524.0605 23.412109 L 2359.4121 23.412109 z M 1045.8184 51.341797 L 1066.1309 51.341797 C 1107.4069 51.341797 1137.0293 54.076172 1154.998 59.544922 C 1178.9564 66.836589 1197.6413 80.313151 1211.0527 99.974609 C 1224.4642 119.63607 1231.1699 143.33398 1231.1699 171.06836 C 1231.1699 197.50065 1224.985 219.89648 1212.6152 238.25586 C 1200.2454 256.48503 1183.2533 269.11523 1161.6387 276.14648 C 1146.2741 281.0944 1118.735 283.56836 1079.0215 283.56836 L 1045.8184 283.56836 L 1045.8184 51.341797 z M 400.86523 51.537109 L 451.45117 51.537109 C 471.11263 51.537109 485.17513 53.229818 493.63867 56.615234 C 502.10221 60.000651 508.93815 65.664714 514.14648 73.607422 C 519.35482 81.419922 521.95898 90.14388 521.95898 99.779297 C 521.95898 109.67513 519.35482 118.65951 514.14648 126.73242 C 509.06836 134.67513 501.9069 140.4694 492.66211 144.11523 C 483.54753 147.76107 469.41992 149.58398 450.2793 149.58398 L 400.86523 149.19336 L 400.86523 51.537109 z "
     id="text5787" />
</svg>
