<?xml version="1.0" encoding="UTF-8" standalone="no"?>
<!-- Created with Inkscape (http://www.inkscape.org/) -->

<svg
   xmlns:dc="http://purl.org/dc/elements/1.1/"
   xmlns:cc="http://creativecommons.org/ns#"
   xmlns:rdf="http://www.w3.org/1999/02/22-rdf-syntax-ns#"
   xmlns:svg="http://www.w3.org/2000/svg"
   xmlns="http://www.w3.org/2000/svg"
   xmlns:sodipodi="http://sodipodi.sourceforge.net/DTD/sodipodi-0.dtd"
   xmlns:inkscape="http://www.inkscape.org/namespaces/inkscape"
   width="48.000172mm"
   height="35.999863mm"
   viewBox="0 0 48.000172 35.999863"
   version="1.1"
   id="svg8"
   inkscape:version="0.92.3 (2405546, 2018-03-11)"
   sodipodi:docname="window.svg">
  <defs
     id="defs2" />
  <sodipodi:namedview
     id="base"
     pagecolor="#ffffff"
     bordercolor="#666666"
     borderopacity="1.0"
     inkscape:pageopacity="0.0"
     inkscape:pageshadow="2"
     inkscape:zoom="6.819652"
     inkscape:cx="140.92124"
     inkscape:cy="116.4885"
     inkscape:document-units="mm"
     inkscape:current-layer="layer1"
     showgrid="false"
     inkscape:window-width="1366"
     inkscape:window-height="740"
     inkscape:window-x="0"
     inkscape:window-y="0"
     inkscape:window-maximized="1" />
  <metadata
     id="metadata5">
    <rdf:RDF>
      <cc:Work
         rdf:about="">
        <dc:format>image/svg+xml</dc:format>
        <dc:type
           rdf:resource="http://purl.org/dc/dcmitype/StillImage" />
        <dc:title />
      </cc:Work>
    </rdf:RDF>
  </metadata>
  <g
     inkscape:label="Layer 1"
     inkscape:groupmode="layer"
     id="layer1"
     transform="translate(0,-261.00009)">
    <path
       style="opacity:1;fill:#ffffff;fill-opacity:1;stroke:none;stroke-width:2.54672694;stroke-miterlimit:4;stroke-dasharray:none;stroke-opacity:1"
       d="M 10.783203 0 C 4.8091946 0 -5.9211895e-15 4.8092036 0 10.783203 L 0 125.2793 C 0 131.2533 4.8091946 136.0625 10.783203 136.0625 L 170.63477 136.0625 C 176.60877 136.0625 181.41797 131.2533 181.41797 125.2793 L 181.41797 10.783203 C 181.41797 4.8092036 176.60877 -4.7369516e-15 170.63477 0 L 10.783203 0 z M 128.50391 3.7792969 A 7.5590551 7.5590551 0 0 1 136.0625 11.337891 A 7.5590551 7.5590551 0 0 1 128.50391 18.896484 A 7.5590551 7.5590551 0 0 1 120.94531 11.337891 A 7.5590551 7.5590551 0 0 1 128.50391 3.7792969 z M 147.40234 3.7792969 A 7.5590549 7.5590549 0 0 1 154.96094 11.337891 A 7.5590549 7.5590549 0 0 1 147.40234 18.896484 A 7.5590549 7.5590549 0 0 1 139.8418 11.337891 A 7.5590549 7.5590549 0 0 1 147.40234 3.7792969 z M 166.29883 3.7792969 A 7.559055 7.559055 0 0 1 173.85742 11.337891 A 7.559055 7.559055 0 0 1 166.29883 18.896484 A 7.559055 7.559055 0 0 1 158.74023 11.337891 A 7.559055 7.559055 0 0 1 166.29883 3.7792969 z M 7.5585938 22.677734 L 173.85742 22.677734 L 173.85742 128.50391 L 7.5585938 128.50391 L 7.5585938 22.677734 z "
       transform="matrix(0.26458333,0,0,0.26458333,0,261.00009)"
       id="rect4518" />
  </g>
</svg>
